# xmcd
#
# Track frame offsets:
#	150
#	17475
#	32325
#	48000
#	67200
#	86100
#	100575
#	117000
#	135675
#	152025
#	168825
#	183525
#	197625
#	214050
#	228375
#	242700
#	261000
#	278625
#
# Disc length: 3906 seconds
#
# Revision: 1
# Processed by: cddbd v1.5.1PL2 Copyright (c) Steve Scherf et al.
# Submitted via: audiograbber 1.83.01
#
DISCID=ea0f4012
DTITLE=Pioneer - P213
DYEAR=1900
DGENRE=Karaoke Country
TTITLE0=Black, Clint and Wynonna - A Bad Goodbye
TTITLE1=Black, Clint - Where Are You Now
TTITLE2=Black, Clint - Put Yourself In My Shoes
TTITLE3=Black, Clint - Loving Blind
TTITLE4=Little Texas - First Time For Everything
TTITLE5=Little Texas - Some Guys Have All The Love
TTITLE6=Mcentire, Reba and Gill, Vince - Heart Won'T Lie, The
TTITLE7=Mcentire, Reba - Is There Life Out There
TTITLE8=Parton, Dolly - Romeo
TTITLE9=Conley, Earl Thomas - Love Don'T Care (Whose Heart It Breaks)
TTITLE10=Forester Sisters - I Fell In Love Again Last Night
TTITLE11=Snow, Hank - I'M Movin' On
TTITLE12=Wynette, Tammy - You And Me
TTITLE13=Jackson, Wanda - Right Or Wrong
TTITLE14=Fargo, Donna - Funny Face
TTITLE15=Frickie, Janie and Haggard, Merle - A Place To Fall Apart
TTITLE16=Judd, Wynonna - Tell Me Why
TTITLE17=Judd, Wynonna - Rock Bottom
EXTD=
EXTT0=
EXTT1=
EXTT2=
EXTT3=
EXTT4=
EXTT5=
EXTT6=
EXTT7=
EXTT8=
EXTT9=
EXTT10=
EXTT11=
EXTT12=
EXTT13=
EXTT14=
EXTT15=
EXTT16=
EXTT17=
PLAYORDER=
